<svg xmlns="http://www.w3.org/2000/svg" viewBox="0 0 420 120" fill="none" role="img" aria-label="Dalily">
  <rect width="420" height="120" fill="#F7F8FA"/>
  <g transform="translate(8, 14) scale(1.35)"><path fill="#0B1526" d="M9 15.5L10.4 19.6L14.5 21L10.4 22.4L9 26.5L7.6 22.4L3.5 21L7.6 19.6Z"/>
    <path fill="#0B1526" d="M12.5 33C13.5 27 17 19 24 14.5C27 12.5 29.5 11.5 31.5 11L32.8 13.2C30.5 14 28 15.5 25.5 17.5C19 22.5 15 28.5 14 34.5Z"/>
    <circle cx="35.5" cy="8.5" r="3" fill="#C4A052"/></g>
  <text x="88" y="52" fill="#0B1526" font-family="'Plus Jakarta Sans', system-ui, sans-serif" font-size="34" font-weight="700" letter-spacing="-0.02em">Dalily</text>
  <text x="88" y="82" fill="#C4A052" font-family="'Noto Sans Arabic', Tahoma, sans-serif" font-size="20" font-weight="500">&#x062F;&#x0644;&#x064A;&#x0644;&#x064A;</text>
  <text x="88" y="108" fill="#8A93A8" font-family="'Plus Jakarta Sans', system-ui, sans-serif" font-size="11" font-weight="600" letter-spacing="0.16em">FROM PROBLEM </text>
  <text x="214" y="108" fill="#C4A052" font-family="'Plus Jakarta Sans', system-ui, sans-serif" font-size="11" font-weight="600" letter-spacing="0.16em">TO </text>
  <text x="236" y="108" fill="#8A93A8" font-family="'Plus Jakarta Sans', system-ui, sans-serif" font-size="11" font-weight="600" letter-spacing="0.16em">SOLUTION</text>
</svg>