<svg xmlns="http://www.w3.org/2000/svg" viewBox="0 0 960 420" fill="none" role="img" aria-label="Dalily color palette">
  <rect width="960" height="420" fill="#F7F8FA"/>
  <text x="48" y="56" fill="#0B1526" font-family="system-ui, sans-serif" font-size="28" font-weight="700">Dalily Color Palette</text>
  <text x="48" y="84" fill="#5C6478" font-family="system-ui, sans-serif" font-size="14">Primary · Accent · Neutrals</text>

  <rect x="48" y="120" width="200" height="120" rx="16" fill="#0B1526"/>
  <text x="68" y="268" fill="#0B1526" font-family="system-ui, sans-serif" font-size="16" font-weight="600">Navy Primary</text>
  <text x="68" y="292" fill="#5C6478" font-family="ui-monospace, monospace" font-size="13">#0B1526</text>

  <rect x="272" y="120" width="200" height="120" rx="16" fill="#151F33"/>
  <text x="292" y="268" fill="#0B1526" font-family="system-ui, sans-serif" font-size="16" font-weight="600">Navy Deep</text>
  <text x="292" y="292" fill="#5C6478" font-family="ui-monospace, monospace" font-size="13">#151F33</text>

  <rect x="496" y="120" width="200" height="120" rx="16" fill="#C4A052"/>
  <text x="516" y="268" fill="#0B1526" font-family="system-ui, sans-serif" font-size="16" font-weight="600">Gold Accent</text>
  <text x="516" y="292" fill="#5C6478" font-family="ui-monospace, monospace" font-size="13">#C4A052</text>

  <rect x="720" y="120" width="192" height="120" rx="16" fill="#FFFFFF" stroke="#E4E7EE" stroke-width="1"/>
  <text x="740" y="268" fill="#0B1526" font-family="system-ui, sans-serif" font-size="16" font-weight="600">White</text>
  <text x="740" y="292" fill="#5C6478" font-family="ui-monospace, monospace" font-size="13">#FFFFFF</text>

  <rect x="48" y="320" width="140" height="56" rx="12" fill="#F7F8FA" stroke="#E4E7EE"/>
  <text x="68" y="354" fill="#5C6478" font-family="ui-monospace, monospace" font-size="12">#F7F8FA Surface</text>

  <rect x="208" y="320" width="140" height="56" rx="12" fill="#8A93A8"/>
  <text x="228" y="354" fill="#FFFFFF" font-family="ui-monospace, monospace" font-size="12">#8A93A8 Muted</text>

  <rect x="368" y="320" width="140" height="56" rx="12" fill="#5C6478"/>
  <text x="388" y="354" fill="#FFFFFF" font-family="ui-monospace, monospace" font-size="12">#5C6478 Text</text>

  <rect x="528" y="320" width="140" height="56" rx="12" fill="#D4B76A"/>
  <text x="548" y="354" fill="#0B1526" font-family="ui-monospace, monospace" font-size="12">#D4B76A Gold Light</text>
</svg>
