<svg xmlns="http://www.w3.org/2000/svg" viewBox="0 0 960 420" fill="none" role="img" aria-label="Dalily logo clear space">
  <rect width="960" height="420" fill="#F7F8FA"/>
  <text x="48" y="48" fill="#0B1526" font-family="system-ui, sans-serif" font-size="24" font-weight="700">Clear Space &amp; Minimum Size</text>
  <text x="48" y="76" fill="#5C6478" font-family="system-ui, sans-serif" font-size="14">Protective zone = height of the mark (X)</text>

  <rect x="120" y="120" width="520" height="200" fill="none" stroke="#C4A052" stroke-width="1" stroke-dasharray="6 6"/>
  <rect x="200" y="160" width="360" height="120" fill="#FFFFFF" stroke="#E4E7EE"/>

  <g transform="translate(220, 178)">
    <path fill-rule="evenodd" clip-rule="evenodd" fill="#0B1526" d="M12 12.2A3.2 3.2 0 0 1 15.2 9h5.1c10.8 0 14.2 14.8 11.2 29.1H15.2A3.2 3.2 0 0 1 12 34.9V12.2Zm12.4 11.8a5.4 5.4 0 1 0-10.8 0 5.4 5.4 0 0 0 10.8 0Z"/>
    <circle cx="26.6" cy="24" r="2.1" fill="#C4A052"/>
  </g>
  <text x="280" y="220" fill="#0B1526" font-family="'Plus Jakarta Sans', system-ui, sans-serif" font-size="28" font-weight="700">Dalily</text>
  <text x="280" y="246" fill="#5C6478" font-family="'Noto Sans Arabic', Tahoma, sans-serif" font-size="14">/DJDJ</text>

  <text x="120" y="350" fill="#0B1526" font-family="system-ui, sans-serif" font-size="14" font-weight="600">Minimum sizes</text>
  <text x="120" y="376" fill="#5C6478" font-family="system-ui, sans-serif" font-size="13">Mark only: 16px · Full logo: 120px width · App icon: 512px master</text>
  <text x="120" y="398" fill="#5C6478" font-family="system-ui, sans-serif" font-size="13">Clear space: 1X on all sides (X = mark height)</text>
</svg>
